<?xml version="1.0" encoding="UTF-8"?>
<svg data-bbox="-0.001 0 234.827 40.371" xmlns="http://www.w3.org/2000/svg" viewBox="0 0 234.827 40.37" height="152.579" width="887.535" data-type="color">
    <g>
        <path d="M.064 27.916c3.245-6.241 7.021-11.958 10.818-17.591.966-1.433 1.817-2.967 3-4.228.842-.895 1.646-2.156 2.864-2.318.558-.075 1.218.224 1.544.682.214.297.112.726.092 1.09-.065 1.173-.505 2.296-.682 3.456-.277 1.821-.503 3.658-.591 5.5-.06 1.258-.124 2.531.046 3.781.2 1.475.255 3.117 1.137 4.317.37.505.974 1.332 1.59 1.447.471.088.972-.08 1.41-.273.603-.264 1.105-.727 1.59-1.173.712-.657 1.333-1.412 1.91-2.19 1.525-2.06 4.072-6.524 4.072-6.524 2.414-3.867 3.428-6.688 5.882-9.431.491-.549 1.124-.97 1.773-1.318.397-.213.884-.682 1.273-.455 1.087.636.708 1.473-.24 2.29a16.69 16.69 0 0 0-1.465 1.412c-.815.904-2.25 2.875-2.25 2.875l-2.984 5.642s-2.518 4.628-4.096 6.726a19.489 19.489 0 0 1-2.387 2.604c-.639.59-1.295 1.188-2.061 1.6-.37.2-.775.368-1.193.407-.7.065-1.424-.071-2.088-.298a5.23 5.23 0 0 1-1.684-.95 4.298 4.298 0 0 1-1.03-1.275c-.6-1.15-1.084-3.742-1.084-3.742l-.272-2.251s-.128-2.888-.049-4.451a35.45 35.45 0 0 1 .282-3.133c.096-.673.67-2.839.304-2.266-.746 1.164-2.675 4.89-3.893 6.938-1.743 2.93-3.052 4.69-4.972 7.601-.686 1.042-1.197 1.886-2.177 3.324-.352.516-1.432 2.369-1.944 2.728-.268.187-1.242.507-1.566.468-.561-.067-1.14-.52-.88-1.021z" fill="#1a1a1a" data-color="1"/>
        <path d="M39.306 11.585c-.76.498-.967 1.257-1.416 2.038-1.078 1.875-1.998 3.83-2.416 5.937-.274 1.378-.188 2.824.03 4.194.086.544.509.98.979 1.266.543.33 1.489.392 2.124.357.82-.047 1.427-.378 2.056-.75 1.922-1.141 5.037-4.43 5.037-4.43s4.845-5.19 5.043-4.977c.139.146-1.962 4.715-2.897 7.18-1.044 2.754-1.941 5.7-3.06 8.37-.786 1.878-1.316 3.173-2.447 4.421-1.215 1.341-2.318 2.265-4.011 2.899-.898.337-2.213.494-3.324.397a5.212 5.212 0 0 1-2.455-.899c-.73-.493-1.281-1.277-1.678-2.038-.429-.824-.464-1.729-.677-2.6-.139-.568.1-1.043.004-1.508-.096-.464-.081-.374-.614-.46-.546-.09-.668.333-.689.489-.098.753-.17 1.206-.166 1.97.006.908-.083 1.894.29 2.824.318.795.837 1.69 1.56 2.275.757.611 1.773 1.243 2.734 1.522 1.005.29 2.166.337 3.22.295a9.778 9.778 0 0 0 3.354-.773c1.106-.473 1.988-1.115 2.87-1.952 1.036-.981 2.017-2.088 2.74-3.326.967-1.652 1.46-3.571 2.168-5.366 1.115-2.826 2.122-5.685 3.276-8.503.692-1.694 1.722-4.047 2.15-5.07.214-.51.447-1.133.317-1.625-.134-.511-.558-1.001-1.087-1.22-.46-.188-.929-.17-1.443.064-.968.441-1.83 1.321-2.635 2.072-1.204 1.122-2.315 2.435-3.508 3.615-1.173 1.161-3.725 3.402-3.725 3.402s-1.642 1.606-2.66 1.678c-.242.017-.541.025-.734-.188-.333-.367-.177-1.214-.117-1.662.07-.534.171-1.488.528-2.387.532-1.34 2.064-3.814 2.064-3.814s.309-.524.76-1.178c.187-.273 1.022-1.042.796-1.42-.185-.312-.451-.677-.9-.927-.363-.203-1.147-.384-1.441-.192z" fill="#1a1a1a" data-color="1"/>
        <path d="M83.103 13.81c-1.116-.26-2.594-.056-3.68.317-1.113.383-2.155 1.05-3.105 1.747-.937.687-2.445 2.435-2.5 2.429-.07-.009-.369-1.254-.827-1.715-.554-.558-1.328-.916-2.168-1.14-.79-.21-1.835-.286-2.67-.158-.388.06-.82.2-1.209.4-.643.333-1.63 1.412-1.736 1.399-.101-.013-1.26-1.564-2.013-2.06-.788-.52-1.663-.925-2.552-.921-.888.002-1.566.669-2.245 1.131-1.11.755-1.685 1.675-2.44 2.669-.731.962-1.545 1.965-2.008 3.16-.373.964-.786 2.115-.7 3.19.075.938.224 2.015.855 2.785.47.576 1.165 1.135 1.951 1.28.766.144 1.842-.003 2.502-.28 1.261-.532 1.964-1.628 2.84-2.598 1.169-1.294 1.911-2.711 3.016-4.051.932-1.13 1.638-2.403 2.9-3.264.461-.314.92-.73 1.616-.778.57-.04 1.538-.174 2.06.201.33.238.72.636.82 1.067.096.414.092.927-.014 1.417-.131.602-.48 1.388-.794 1.976a7.996 7.996 0 0 1-1.38 1.908c-.258.27-.596.75-.556 1.204.027.327.158.833.431 1.044.317.245.679.463 1.102.351.29-.077.611-.368.799-.586.49-.57.958-1.222 1.263-1.835.558-1.128.565-1.313.857-1.92.255-.529 2.666-3.629 4.432-4.926.728-.537 1.424-1.01 2.386-1.28.707-.2 1.919-.707 2.334-.375.292.234.342.654.308 1.063-.072.853-.507 1.7-.807 2.522-.363.987-.877 1.969-1.1 3.015-.21.99-.499 2.024-.21 3.034.115.407.395.874.76 1.149.413.31.945.642 1.558.63 1.034-.022 2.29-.597 3.226-1.109 1.688-.92 3.226-2.258 4.702-3.497.975-.82 2.738-2.728 2.791-2.637.055.096-.69 1.13-.864 1.98-.186.912-.376 2.198-.142 3.173.174.72.728 1.427 1.453 1.72.768.312 1.733.292 2.532.013.92-.322 1.726-.952 2.394-1.715.332-.38.738-.612.844-1.357.02-.136.047-.701-.134-.765-.322-.112-.565.06-.895.234a22.73 22.73 0 0 0-1.257.735 17.184 17.184 0 0 1-1.262.704c-.404.203-1.098.518-1.428.24-.302-.256-.415-1.25-.292-1.918.175-.946.732-1.91 1.271-2.728.735-1.115 1.811-2.016 2.5-3.174.25-.42.65-.863.578-1.348a1.17 1.17 0 0 0-.734-.88c-.428-.144-.858.082-1.321.302-.463.221-.925.728-1.357 1.074-.975.781-1.907 1.676-2.851 2.495-1.006.872-1.96 1.774-3.023 2.606-.946.742-1.926 1.505-2.975 2.127-.91.539-1.807 1.16-2.87 1.455-.348.096-1.082.261-1.177.186-.1-.08-.15-.868-.096-1.234.14-.946.51-1.689.867-2.578.365-.91.804-1.798 1.08-2.742.213-.73.455-1.419.386-2.273-.026-.32-.113-.957-.326-1.208-.416-.488-.963-.911-1.696-1.082zm-21.86 2.436c1.582.146 2.93 2.333 2.102 3.31-2.391 2.818-4.584 6.842-7.012 6.802-.696-.01-1.082-1.057-1.14-1.751-.153-1.799 1.753-4.427 2.15-4.97.81-1.108 3.011-3.473 3.9-3.391z" fill="#1a1a1a" data-color="1"/>
        <path d="M101.928 8.02c-.1.405.054.877.298 1.215.255.351.684.58 1.103.691.313.083.717.163.971-.037.341-.269.419-.824.356-1.253-.066-.445-.344-.785-.72-1.033-.38-.25-.927-.484-1.354-.33-.312.111-.576.425-.654.747z" fill="#1a1a1a" data-color="1"/>
        <path d="M231.064 10.661c-.934.066-1.544.396-2.447.876-.737.39-1.627.779-2.239 1.513-.44.53-.841 1.443-.845 2.139-.004.753.217 1.373.556 2.284.238.636.871 1.636 1.117 2.363.26.772.358 1.663.322 2.694-.022.662-.257 1.655-1.067 2.053-.951.467-2.831.487-4.016.52-.816.023-2.447-.914-2.824-.027-.176.416.04.712.516.97 1.003.544 2.22.628 3.47.66.836.022 1.975.137 2.832-.093.61-.164 1.338-.35 1.828-.834.395-.39.792-.916.95-1.544.179-.709.22-1.676.098-2.412-.168-1.015-.567-1.937-.907-2.99-.286-.885-1.078-1.903-.957-2.865.075-.59.367-1.16.879-1.655.394-.381.967-.886 1.652-1.095.523-.16 1.574-.579 2.11-.358.435.179.69.693.957 1.08.469.678 1.159 1.101 1.694.88.18-.075.065-1.69-.316-2.372-.36-.643-.991-1.109-1.653-1.433-.538-.263-1.172-.394-1.71-.355z" fill="#1a1a1a" data-color="1"/>
        <path d="M216.731 6.106c-.415-.327-.856-.644-1.33-.56-.314.057-.655.338-.7.654-.094.673.453 1.319 1.051 1.75.444.32 1.072.601 1.524.333.37-.218.367-.769.27-1.15-.092-.364-.52-.795-.815-1.027z" fill="#1a1a1a" data-color="1"/>
        <path d="M161.774 5.267c-.51.026-.98.29-1.42.578-1.172.765-2.011 1.832-2.917 3.023-1.124 1.48-2.22 3.337-3.142 4.95-1.432 2.506-2.617 4.87-3.996 7.68-.32.653-.768 2.341-1.295 2.877-.656.666-1.452.936-2.472 1.062-1.129.14-2.736.397-3.694-.183-.907-.548-1.235-1.64-1.543-2.686-.368-1.253-.146-2.502-.014-3.803.058-.573.272-1.72.443-2.305.132-.451.26-.34.145-.78-.16-.613-.62-1.153-1.202-1.32-.37-.106-.978.406-.997.28-.013-.089-.392-1.088-.988-1.771a2.238 2.238 0 0 0-1.408-.747c-1.256-.152-2.158 1.148-3.067 2.052a18.944 18.944 0 0 0-3.69 5.19c-.697 1.457-1.435 3.135-1.292 4.743.09 1.014.448 2.003 1.327 2.75.715.61 1.936 1.271 2.87 1.167 1.078-.121 2.026-.872 2.844-1.586.94-.82 1.517-1.912 2.246-2.991.275-.408.629-1.496.739-1.485.117.01.346 1.62.746 2.331.393.702.784 1.33 1.578 1.825.803.502 2.061.939 3.024 1.037 1.186.121 3.283-.433 3.418-.344.155.102-.269.547-.445.617-1.026.406-1.946 1.483-2.776 2.475-1.11 1.33-1.563 2.587-2.238 4.415-.191.518-.727 2.126-.248 2.777.407.553 1.392 1.044 2.041.874.941-.247 1.318-1.225 1.905-2.097.97-1.44 1.713-3.274 2.432-4.871.407-.904 1.092-2.672 1.188-2.77.099-.1 4.316-.92 6.657-1.524 1.945-.502 4.032-.965 5.93-1.675 1.803-.675 3.732-1.53 5.312-2.393 1.227-.67 3.021-2.162 3.186-2.123.145.033.176 1.458.574 2.152.344.601.865 1.24 1.484 1.621.565.347 1.205.718 1.905.71a4.166 4.166 0 0 0 2.102-.613c.554-.332 1.2-.87 1.611-1.36.634-.75 1.575-2.358 1.743-2.37.109-.008.21 1.424.685 2.127.375.555.908 1.231 1.554 1.517.95.42 2.04.68 3.084.62 1.377-.077 2.67-.49 3.935-1.086 1.299-.613 2.492-1.438 3.613-2.336.73-.585 1.975-1.95 2.098-1.868.122.08-.25.813-.53 1.64-.274.808-.58 1.63-.549 1.75.09.355.284.756.514.993.471.486 1.194.628 1.492.44.447-.282 2.018-2.907 3.237-4.204 1.57-1.67 3.154-3.267 4.962-4.756.911-.75 1.786-1.695 2.958-2.205.719-.313 2.156-.913 2.539-.613.235.184-1.926 3.148-2.498 4.65-.612 1.608-1.104 2.773-1.085 4.643.01 1.096.528 2.057 1.49 2.665.572.36 1.238.616 2.104.412 1.239-.29 2.942-1.062 3.6-2.151.345-.573.95-1.72.374-1.972-.758-.331-1.745.988-2.706 1.506-.859.462-1.818 1.31-2.631.802-.506-.317-.458-1.138-.4-1.731.114-1.171.72-2.246 1.212-3.315.491-1.069 1.217-2.017 1.726-3.077.31-.647.795-1.246.803-1.997.007-.702-.139-1.431-.7-1.903-.48-.403-1.048-.568-1.718-.522-.736.05-1.434.321-2.174.7-.776.4-1.685.958-2.452 1.53-1.348 1.006-2.781 2.24-4.047 3.404-.849.78-2.378 2.599-2.575 2.474-.177-.111.922-2.317 1.745-3.567.355-.539 1.107-1.143 1.24-1.723.108-.47-.154-.927-.475-1.288-.247-.277-.582-.6-1.038-.41-.745.313-1.18 1.472-1.685 2.146-.934 1.245-2.078 2.383-3.218 3.497-1.045 1.02-2.085 2.162-3.311 3.04-1.051.752-2.223 1.366-3.555 1.913-.7.287-1.699.808-2.574.82-.684.01-1.78.136-2.318-.388-.536-.523-.761-1.352-.774-2.16-.021-1.327.361-2.758.864-4.024.349-.877.737-1.677 1.349-2.54.207-.293.662-.802.714-1.194.063-.48-.25-.921-.635-1.213-.247-.187-.577-.26-.886-.28-.168-.01-.341-.016-.495.094-.504.359-.578 1.736-.95 1.632-.074-.02-.855-1.785-1.68-2.192-.53-.261-1.192-.113-1.772 0-1.233.24-2.434.649-3.493 1.41-.822.59-1.438 1.523-2.106 2.353-.897 1.115-1.64 2.504-2.655 3.551-1.217 1.255-2.713 2.304-4.268 3.15-2.2 1.195-4.595 2.03-7.038 2.765-2.87.865-8.865 2.153-8.885 1.973-.021-.184.158-.237.333-.445.419-.497 1.084-.857 1.662-1.242a23.35 23.35 0 0 0 1.782-1.344 26.515 26.515 0 0 0 3.45-3.404c1.078-1.264 2.018-2.645 2.892-4.057.888-1.438 1.783-2.896 2.378-4.477.484-1.283 1.059-2.779.947-4.003-.07-.762-.36-1.103-.947-1.592-.298-.25-.73-.347-1.119-.327zm.478 1.814c.238.134 0 .592-.195 1.651-.295 1.614-1.598 4.013-3.152 6.404-2.625 4.04-6.672 7.574-6.842 7.388-.226-.249 2.065-4.643 4.466-8.704 1.6-2.704 3.048-4.786 4.25-5.852.53-.471 1.126-1.082 1.473-.887zm16.933 6.38c.989.018 1.352 1.104 2.719.865.576-.101-1.01.844-1.133 1.537-.238 1.336-2.157 4.077-2.966 5.055-.47.569-1.104 1.308-1.735 1.744-.99.685-2.005.86-2.592.27-.377-.379-.656-1.625-.459-2.7.248-1.348 1.11-2.624 1.943-3.837 1.212-1.764 2.595-2.963 4.223-2.933zm-39.786 2.474c.134 0-.506 3.381-2.005 5.667-1.84 2.807-4.658 4.783-5.035 4.712-.725-.135-.816-1.04-1.101-1.916-.33-1.01.698-3.536 2.135-5.847.95-1.531 2.245-3.157 3.127-3.972.367-.338.9-.578.929-.545.099.11.122 1.705.611 2.091.626.494 1.27-.19 1.34-.19zm7.308 14.717c.174.12-.47 1.302-1.256 2.509-.51.784-.86 1.678-1.054 1.58-.218-.111.547-1.586.938-2.35.569-1.11 1.146-1.896 1.372-1.74z" fill="#1a1a1a" data-color="1"/>
        <path d="M113.234 20.171c-1.239.367-1.639 3.41-1.698 3.7-.199.96-.33 2.017-.285 2.751.041.678.196 1.532.706 2.155.389.476 1.05 1.129 1.676 1.442.685.343 1.545.713 2.407.756a9.665 9.665 0 0 0 2.98-.352c1.075-.312 2.232-.648 3.214-1.26.932-.579 1.882-1.301 2.539-2.147.608-.782 1.072-1.52 1.415-2.494.403-1.142.617-2.438.716-3.653.08-.971-.005-2.955-.005-2.955s-.11-2.809-.125-4.182c-.014-1.303-.136-2.527.036-3.844.161-1.23.377-2.54.894-3.684.477-1.056 1.086-2.046 1.963-2.88.65-.62 1.276-1.328 2.349-1.59.584-.144 1.695-.445 2.384-.132.39.178 1.06.456 1.315.874.21.346.46.737.561 1.291.096.525.092 1.216.082 2.124-.004.371-.179 1.902.194 2.2.429.342 1.139.765 1.596.327.34-.325.327-.946.315-1.412-.024-1.002.061-1.986-.27-2.98-.336-1.006-.925-2.064-1.648-2.691-.915-.794-1.914-1.32-2.99-1.483-1.55-.234-2.67.345-4.06 1.2-1.369.842-2.498 1.938-3.26 3.495a14.274 14.274 0 0 0-1.351 4.834c-.147 1.673.043 3.312.06 5.123.023 2.268.314 4.954-.09 7.204-.254 1.417-.668 2.918-1.567 4.107-.887 1.171-2.057 2.131-3.583 2.703-1.313.493-3.298 1.2-4.671.725-.71-.245-1.449-.737-1.755-1.687-.398-1.23-.3-3.134-.032-4.536.119-.621.48-1.72.523-2.214.078-.878-.194-.936-.536-.834z" fill="#1a1a1a" data-color="1"/>
    </g>
</svg>
